<svg xmlns="http://www.w3.org/2000/svg" viewBox="0 0 520 350" role="img" aria-labelledby="title desc">
  <title id="title">Syrian Renewables logo</title>
  <desc id="desc">Syrian Renewables platform logo with renewable energy symbols.</desc>
  <g fill="currentColor" stroke="currentColor" stroke-linejoin="round">
    <circle cx="260" cy="118" r="94" opacity="0.08" stroke-width="10" fill="none"/>
    <path d="M170 111A94 94 0 0 1 250 25v85z" opacity="0.28"/>
    <path d="M222 164c40-50 97-61 139-46-25 22-56 58-118 70 16-14 28-25 42-40-22 11-43 27-63 51z" opacity="0.62"/>
    <path d="M208 179c-18-25-30-54-29-82 30 11 58 30 76 62-19-9-37-18-55-28 8 16 16 32 28 48z" opacity="0.38"/>
    <circle cx="260" cy="112" r="13"/>
    <path d="M260 100L266 14l11 83zM250 119l-83 47 71-65zM270 119l78 47-87-37z" stroke-width="3"/>
    <circle cx="260" cy="112" r="7" opacity="0.18"/>
    <path d="M178 177l20-13 17 21-31 2z" opacity="0.5"/>
  </g>
  <text x="260" y="262" text-anchor="middle" font-family="Arial, Helvetica, sans-serif" font-weight="900" font-size="48" fill="currentColor" letter-spacing="2">SYRIAN</text>
  <text x="260" y="307" text-anchor="middle" font-family="Arial, Helvetica, sans-serif" font-weight="900" font-size="39" fill="currentColor" letter-spacing="1">RENEWABLES</text>
  <text x="260" y="337" text-anchor="middle" font-family="Tahoma, Arial, sans-serif" font-weight="700" font-size="21" fill="currentColor">الطاقات المتجددة في سوريا</text>
</svg>
