<svg xmlns="http://www.w3.org/2000/svg" viewBox="0 0 520 350" role="img" aria-labelledby="title desc">
  <title id="title">Syrian Renewables logo</title>
  <desc id="desc">Syrian Renewables platform logo with renewable energy symbols.</desc>
  <defs>
    <linearGradient id="sea" x1="0" x2="1" y1="0" y2="1">
      <stop offset="0" stop-color="#75D6DF"/>
      <stop offset="1" stop-color="#1D8AA2"/>
    </linearGradient>
    <linearGradient id="green" x1="0" x2="1" y1="0" y2="1">
      <stop offset="0" stop-color="#51B848"/>
      <stop offset="1" stop-color="#0E6D43"/>
    </linearGradient>
    <filter id="soft" x="-20%" y="-20%" width="140%" height="140%">
      <feDropShadow dx="0" dy="10" stdDeviation="8" flood-color="#0C4250" flood-opacity="0.18"/>
    </filter>
  </defs>
  <g filter="url(#soft)">
    <circle cx="260" cy="118" r="94" fill="url(#sea)" opacity="0.95"/>
    <path d="M170 111A94 94 0 0 1 250 25v85z" fill="#FDBA2D" opacity="0.95"/>
    <path d="M201 55l9 20M178 82l23 8M184 130l23-5" stroke="#fff" stroke-width="8" stroke-linecap="round" opacity="0.82"/>
    <path d="M222 164c40-50 97-61 139-46-25 22-56 58-118 70 16-14 28-25 42-40-22 11-43 27-63 51z" fill="url(#green)" stroke="#0B5838" stroke-width="3"/>
    <path d="M208 179c-18-25-30-54-29-82 30 11 58 30 76 62-19-9-37-18-55-28 8 16 16 32 28 48z" fill="#92D8C9" opacity="0.95"/>
    <circle cx="260" cy="112" r="13" fill="#063A4C"/>
    <path d="M260 100L266 14l11 83zM250 119l-83 47 71-65zM270 119l78 47-87-37z" fill="#063A4C" stroke="#053244" stroke-width="3" stroke-linejoin="round"/>
    <circle cx="260" cy="112" r="7" fill="#9EE4E5"/>
    <path d="M178 177l20-13 17 21-31 2z" fill="#D92128"/>
  </g>
  <text x="260" y="262" text-anchor="middle" font-family="Arial, Helvetica, sans-serif" font-weight="900" font-size="48" fill="#053A52" letter-spacing="2">SYRIAN</text>
  <text x="260" y="307" text-anchor="middle" font-family="Arial, Helvetica, sans-serif" font-weight="900" font-size="39" fill="#073A52" letter-spacing="1">RENEWABLES</text>
  <text x="260" y="337" text-anchor="middle" font-family="Tahoma, Arial, sans-serif" font-weight="700" font-size="21" fill="#16865D">الطاقات المتجددة في سوريا</text>
</svg>
